<?xml version="1.0" standalone="no"?>
<!DOCTYPE svg PUBLIC "-//W3C//DTD SVG 20010904//EN"
 "http://www.w3.org/TR/2001/REC-SVG-20010904/DTD/svg10.dtd">
<svg version="1.0" xmlns="http://www.w3.org/2000/svg"
 width="1216.000000pt" height="1216.000000pt" viewBox="0 0 1216.000000 1216.000000"
 preserveAspectRatio="xMidYMid meet">
<metadata>
Created by potrace 1.11, written by Peter Selinger 2001-2013
</metadata>
<g transform="translate(0.000000,1216.000000) scale(0.100000,-0.100000)"
fill="#000000" stroke="none">
<path d="M0 6080 l0 -6080 6080 0 6080 0 0 6080 0 6080 -6080 0 -6080 0 0
-6080z m4091 3037 c58 -30 102 -99 136 -207 14 -47 43 -128 65 -180 37 -91
418 -1118 433 -1170 4 -14 68 -187 142 -385 74 -198 190 -511 258 -695 68
-184 162 -438 210 -565 48 -126 142 -381 210 -565 68 -184 178 -481 245 -660
67 -179 155 -415 195 -525 96 -261 87 -240 95 -224 5 8 36 93 70 189 34 96 90
254 125 350 35 96 115 326 178 510 190 550 331 939 368 1012 43 84 95 126 192
155 42 12 58 13 96 2 70 -19 115 -44 151 -85 41 -47 58 -85 155 -349 42 -115
161 -437 265 -715 103 -278 236 -635 295 -795 59 -159 112 -299 118 -310 9
-17 12 -14 28 30 26 75 104 294 234 655 64 179 152 424 195 545 43 121 138
384 210 585 72 201 149 415 170 475 21 61 63 180 95 265 31 85 80 223 110 305
29 83 87 247 130 365 227 633 301 840 390 1090 53 151 116 327 140 390 23 63
59 161 80 217 60 166 135 232 261 233 148 0 256 -120 240 -267 -4 -29 -31
-122 -61 -207 -30 -85 -55 -157 -55 -161 0 -4 -18 -52 -39 -108 -22 -56 -103
-280 -181 -497 -77 -217 -172 -480 -210 -585 -38 -104 -91 -253 -118 -330 -28
-77 -95 -266 -150 -420 -56 -154 -143 -399 -196 -545 -52 -146 -137 -384 -190
-530 -52 -146 -147 -411 -211 -590 -64 -179 -150 -417 -190 -530 -40 -113
-135 -376 -210 -585 -75 -209 -148 -413 -161 -454 -29 -90 -54 -131 -105 -175
-71 -60 -159 -70 -291 -32 -112 33 -164 90 -216 237 -17 46 -96 262 -177 479
-81 217 -212 568 -290 780 -208 560 -247 665 -251 669 -2 2 -6 -2 -8 -10 -10
-30 -168 -460 -205 -559 -22 -58 -133 -366 -246 -685 -256 -720 -247 -697
-293 -774 -64 -109 -149 -161 -261 -161 -98 0 -189 59 -237 153 -10 17 -32 75
-50 127 -18 52 -88 246 -157 430 -167 448 -407 1094 -593 1595 -132 359 -154
409 -170 406 -11 -3 -417 -7 -902 -10 l-884 -6 -174 -475 c-96 -261 -213 -578
-260 -705 -279 -748 -449 -1211 -475 -1288 -38 -115 -59 -154 -106 -198 -59
-57 -99 -73 -173 -73 -78 0 -131 24 -182 84 -63 73 -76 181 -34 292 12 35 60
162 105 283 122 325 354 951 606 1635 123 333 267 722 320 865 53 143 229 618
390 1055 619 1679 667 1804 699 1850 67 94 207 129 307 77z"/>
<path d="M3741 7532 c-123 -334 -279 -755 -346 -937 -67 -181 -126 -340 -129
-352 l-7 -23 716 0 c679 0 717 1 710 18 -4 9 -60 161 -125 337 -155 420 -231
623 -290 776 -27 69 -76 197 -109 285 -32 87 -64 170 -70 184 -5 14 -33 88
-61 165 -28 77 -55 143 -58 147 -4 4 -108 -266 -231 -600z"/>
</g>
</svg>
